# xmcd CD database file
#
# Track frame offsets:
#	150
#	14837
#	44024
#	74404
#	106816
#	126050
#	159823
#	177508
#	218141
#	250949
#	288359
#
# Disc length: 4383 seconds
#
# Revision: 0
# Processed by: cddbd v1.5.1PL2 Copyright (c) Steve Scherf et al.
# Submitted via: CDex 1.51
#
DISCID=a0111d0b
DTITLE=Fabrizio Bosso Quintet - Rome After Midnight
DYEAR=2004
DGENRE=Jazz
TTITLE0=Eye Of The Hurricane
TTITLE1=Ceora
TTITLE2=Honeysuckle Rose
TTITLE3=Road Song
TTITLE4=Johnny Comes Lately
TTITLE5=You Don't Know What Love Is
TTITLE6=Birdlike
TTITLE7=Have You Met Miss Jones
TTITLE8=Crisis
TTITLE9=There Is No Greater Love
TTITLE10=I'll Remember April
EXTD=YEAR: 2004
EXTT0=
EXTT1=
EXTT2=
EXTT3=
EXTT4=
EXTT5=
EXTT6=
EXTT7=
EXTT8=
EXTT9=
EXTT10=
PLAYORDER=
